<svg width="128" height="128" viewBox="0 0 128 128" fill="none" xmlns="http://www.w3.org/2000/svg">
<path d="M0 42.6667C0 19.1025 19.1025 0 42.6667 0H85.3333C108.897 0 128 19.1025 128 42.6667V85.3333C128 108.897 108.897 128 85.3333 128H42.6667C19.1025 128 0 108.897 0 85.3333V42.6667Z" fill="url(#paint0_linear_1707_160)"/>
<path d="M10.1053 37.8948C10.1053 23.4773 22.1701 11.7896 37.0527 11.7896H90.9475C105.83 11.7896 117.895 23.4773 117.895 37.8948V90.1053C117.895 104.523 105.83 116.211 90.9475 116.211H37.0527C22.1701 116.211 10.1053 104.523 10.1053 90.1053V37.8948Z" fill="black"/>
<path d="M69 28.4445C69 30.0231 68.3138 31.4418 67.2222 32.4196V39.1112H85C87.8288 39.1112 90.542 40.2348 92.5424 42.2355C94.5428 44.2359 95.6667 46.9488 95.6667 49.7779V85.3335C95.6667 88.1623 94.5428 90.8755 92.5424 92.8759C90.542 94.8762 87.8288 96.0001 85 96.0001H42.3333C39.5045 96.0001 36.7913 94.8762 34.7909 92.8759C32.7905 90.8755 31.6667 88.1623 31.6667 85.3335V49.7779C31.6667 46.9488 32.7905 44.2359 34.7909 42.2355C36.7913 40.2348 39.5045 39.1112 42.3333 39.1112H60.1111V32.4196C59.448 31.8265 58.9438 31.077 58.6444 30.2392C58.3451 29.4015 58.2601 28.5021 58.397 27.6231C58.5339 26.7441 58.8887 25.9133 59.4288 25.2064C59.9689 24.4994 60.6772 23.9389 61.4892 23.5757C62.3017 23.2125 63.1916 23.0582 64.0788 23.127C64.9655 23.1957 65.8213 23.4852 66.5676 23.9691C67.3143 24.453 67.928 25.116 68.3525 25.8977C68.7774 26.6793 69 27.5548 69 28.4445ZM42.3333 46.2224C41.3904 46.2224 40.4859 46.5968 39.8192 47.2638C39.1525 47.9305 38.7778 48.835 38.7778 49.7779V85.3335C38.7778 86.2764 39.1525 87.1806 39.8192 87.8476C40.4859 88.5143 41.3904 88.889 42.3333 88.889H85C85.9429 88.889 86.8475 88.5143 87.5141 87.8476C88.1808 87.1806 88.5556 86.2764 88.5556 85.3335V49.7779C88.5556 48.835 88.1808 47.9305 87.5141 47.2638C86.8475 46.5968 85.9429 46.2224 85 46.2224H42.3333ZM28.1111 56.889H21V78.2224H28.1111V56.889ZM99.2222 56.889H106.333V78.2224H99.2222V56.889ZM53 72.889C54.4144 72.889 55.7712 72.3269 56.7714 71.3267C57.7716 70.3265 58.3333 68.9701 58.3333 67.5557C58.3333 66.1409 57.7716 64.7845 56.7714 63.7843C55.7712 62.7841 54.4144 62.2224 53 62.2224C51.5856 62.2224 50.2288 62.7841 49.2286 63.7843C48.2284 64.7845 47.6667 66.1409 47.6667 67.5557C47.6667 68.9701 48.2284 70.3265 49.2286 71.3267C50.2288 72.3269 51.5856 72.889 53 72.889ZM74.3333 72.889C75.7477 72.889 77.1045 72.3269 78.1047 71.3267C79.1049 70.3265 79.6667 68.9701 79.6667 67.5557C79.6667 66.1409 79.1049 64.7845 78.1047 63.7843C77.1045 62.7841 75.7477 62.2224 74.3333 62.2224C72.9189 62.2224 71.5621 62.7841 70.562 63.7843C69.5618 64.7845 69 66.1409 69 67.5557C69 68.9701 69.5618 70.3265 70.562 71.3267C71.5621 72.3269 72.9189 72.889 74.3333 72.889Z" fill="url(#paint1_linear_1707_160)"/>
<defs>
<linearGradient id="paint0_linear_1707_160" x1="0" y1="64" x2="128" y2="64" gradientUnits="userSpaceOnUse">
<stop stop-color="#FB923C"/>
<stop offset="1" stop-color="#EC4899"/>
</linearGradient>
<linearGradient id="paint1_linear_1707_160" x1="21" y1="59.5557" x2="106.333" y2="59.5557" gradientUnits="userSpaceOnUse">
<stop stop-color="#FB923C"/>
<stop offset="1" stop-color="#EC4899"/>
</linearGradient>
</defs>
</svg>
