<svg width="229" height="36" viewBox="0 0 229 36" fill="none" xmlns="http://www.w3.org/2000/svg">
<path d="M0 12C0 5.37258 5.37258 0 12 0H24C30.6274 0 36 5.37258 36 12V24C36 30.6274 30.6274 36 24 36H12C5.37258 36 0 30.6274 0 24V12Z" fill="url(#paint0_linear_70_4948)"/>
<path d="M2 10C2 5.58172 5.58172 2 10 2H26C30.4183 2 34 5.58172 34 10V26C34 30.4183 30.4183 34 26 34H10C5.58172 34 2 30.4183 2 26V10Z" fill="#0B0B14"/>
<path d="M14.25 12.6667L12.1667 13.8333L13.3333 11.75L12.1667 9.66667L14.25 10.8333L16.3333 9.66667L15.1667 11.75L16.3333 13.8333L14.25 12.6667ZM24.25 20.8333L26.3333 19.6667L25.1667 21.75L26.3333 23.8333L24.25 22.6667L22.1667 23.8333L23.3333 21.75L22.1667 19.6667L24.25 20.8333ZM26.3333 9.66667L25.1667 11.75L26.3333 13.8333L24.25 12.6667L22.1667 13.8333L23.3333 11.75L22.1667 9.66667L24.25 10.8333L26.3333 9.66667ZM19.1167 18.65L21.15 16.6167L19.3833 14.85L17.35 16.8833L19.1167 18.65ZM19.975 14.075L21.925 16.025C22.25 16.3333 22.25 16.875 21.925 17.2L12.2 26.925C11.875 27.25 11.3333 27.25 11.025 26.925L9.075 24.975C8.75 24.6667 8.75 24.125 9.075 23.8L18.8 14.075C19.125 13.75 19.6667 13.75 19.975 14.075Z" fill="url(#paint1_linear_70_4948)"/>
<path d="M55.1 23.12C53.8067 23.12 52.6133 22.82 51.52 22.22C50.44 21.6067 49.58 20.76 48.94 19.68C48.3133 18.5867 48 17.36 48 16C48 14.64 48.3133 13.42 48.94 12.34C49.58 11.26 50.44 10.42 51.52 9.82C52.6133 9.20667 53.8067 8.9 55.1 8.9C56.4067 8.9 57.6 9.20667 58.68 9.82C59.7733 10.42 60.6333 11.26 61.26 12.34C61.8867 13.42 62.2 14.64 62.2 16C62.2 17.36 61.8867 18.5867 61.26 19.68C60.6333 20.76 59.7733 21.6067 58.68 22.22C57.6 22.82 56.4067 23.12 55.1 23.12ZM55.1 21.14C56.02 21.14 56.84 20.9333 57.56 20.52C58.28 20.0933 58.84 19.4933 59.24 18.72C59.6533 17.9333 59.86 17.0267 59.86 16C59.86 14.9733 59.6533 14.0733 59.24 13.3C58.84 12.5267 58.28 11.9333 57.56 11.52C56.84 11.1067 56.02 10.9 55.1 10.9C54.18 10.9 53.36 11.1067 52.64 11.52C51.92 11.9333 51.3533 12.5267 50.94 13.3C50.54 14.0733 50.34 14.9733 50.34 16C50.34 17.0267 50.54 17.9333 50.94 18.72C51.3533 19.4933 51.92 20.0933 52.64 20.52C53.36 20.9333 54.18 21.14 55.1 21.14Z" fill="white"/>
<path d="M70.0036 11.78C70.8703 11.78 71.6436 11.96 72.3236 12.32C73.0169 12.68 73.5569 13.2133 73.9436 13.92C74.3303 14.6267 74.5236 15.48 74.5236 16.48V22.98H72.2636V16.82C72.2636 15.8333 72.0169 15.08 71.5236 14.56C71.0303 14.0267 70.3569 13.76 69.5036 13.76C68.6503 13.76 67.9703 14.0267 67.4636 14.56C66.9703 15.08 66.7236 15.8333 66.7236 16.82V22.98H64.4436V11.96H66.7236V13.22C67.0969 12.7667 67.5703 12.4133 68.1436 12.16C68.7303 11.9067 69.3503 11.78 70.0036 11.78Z" fill="white"/>
<path d="M79.7119 13.6C80.0985 13.0667 80.6252 12.6333 81.2919 12.3C81.9719 11.9533 82.7252 11.78 83.5519 11.78C84.5252 11.78 85.4052 12.0133 86.1919 12.48C86.9785 12.9467 87.5985 13.6133 88.0519 14.48C88.5052 15.3333 88.7319 16.3133 88.7319 17.42C88.7319 18.5267 88.5052 19.52 88.0519 20.4C87.5985 21.2667 86.9719 21.9467 86.1719 22.44C85.3852 22.92 84.5119 23.16 83.5519 23.16C82.6985 23.16 81.9385 22.9933 81.2719 22.66C80.6185 22.3267 80.0985 21.9 79.7119 21.38V22.98H77.4319V8.18H79.7119V13.6ZM86.4119 17.42C86.4119 16.66 86.2519 16.0067 85.9319 15.46C85.6252 14.9 85.2119 14.48 84.6919 14.2C84.1852 13.9067 83.6385 13.76 83.0519 13.76C82.4785 13.76 81.9319 13.9067 81.4119 14.2C80.9052 14.4933 80.4919 14.92 80.1719 15.48C79.8652 16.04 79.7119 16.7 79.7119 17.46C79.7119 18.22 79.8652 18.8867 80.1719 19.46C80.4919 20.02 80.9052 20.4467 81.4119 20.74C81.9319 21.0333 82.4785 21.18 83.0519 21.18C83.6385 21.18 84.1852 21.0333 84.6919 20.74C85.2119 20.4333 85.6252 19.9933 85.9319 19.42C86.2519 18.8467 86.4119 18.18 86.4119 17.42Z" fill="white"/>
<path d="M95.7666 23.16C94.7266 23.16 93.7866 22.9267 92.9466 22.46C92.1066 21.98 91.4466 21.3133 90.9666 20.46C90.4866 19.5933 90.2466 18.5933 90.2466 17.46C90.2466 16.34 90.4932 15.3467 90.9866 14.48C91.4799 13.6133 92.1532 12.9467 93.0066 12.48C93.8599 12.0133 94.8132 11.78 95.8666 11.78C96.9199 11.78 97.8732 12.0133 98.7266 12.48C99.5799 12.9467 100.253 13.6133 100.747 14.48C101.24 15.3467 101.487 16.34 101.487 17.46C101.487 18.58 101.233 19.5733 100.727 20.44C100.22 21.3067 99.5266 21.98 98.6466 22.46C97.7799 22.9267 96.8199 23.16 95.7666 23.16ZM95.7666 21.18C96.3532 21.18 96.8999 21.04 97.4066 20.76C97.9266 20.48 98.3466 20.06 98.6666 19.5C98.9866 18.94 99.1466 18.26 99.1466 17.46C99.1466 16.66 98.9932 15.9867 98.6866 15.44C98.3799 14.88 97.9732 14.46 97.4666 14.18C96.9599 13.9 96.4132 13.76 95.8266 13.76C95.2399 13.76 94.6932 13.9 94.1866 14.18C93.6932 14.46 93.2999 14.88 93.0066 15.44C92.7132 15.9867 92.5666 16.66 92.5666 17.46C92.5666 18.6467 92.8666 19.5667 93.4666 20.22C94.0799 20.86 94.8466 21.18 95.7666 21.18Z" fill="white"/>
<path d="M102.98 17.42C102.98 16.3133 103.207 15.3333 103.66 14.48C104.127 13.6267 104.754 12.9667 105.54 12.5C106.34 12.02 107.22 11.78 108.18 11.78C109.047 11.78 109.8 11.9533 110.44 12.3C111.094 12.6333 111.614 13.0533 112 13.56V11.96H114.3V22.98H112V21.34C111.614 21.86 111.087 22.2933 110.42 22.64C109.754 22.9867 108.994 23.16 108.14 23.16C107.194 23.16 106.327 22.92 105.54 22.44C104.754 21.9467 104.127 21.2667 103.66 20.4C103.207 19.52 102.98 18.5267 102.98 17.42ZM112 17.46C112 16.7 111.84 16.04 111.52 15.48C111.214 14.92 110.807 14.4933 110.3 14.2C109.794 13.9067 109.247 13.76 108.66 13.76C108.074 13.76 107.527 13.9067 107.02 14.2C106.514 14.48 106.1 14.9 105.78 15.46C105.474 16.0067 105.32 16.66 105.32 17.42C105.32 18.18 105.474 18.8467 105.78 19.42C106.1 19.9933 106.514 20.4333 107.02 20.74C107.54 21.0333 108.087 21.18 108.66 21.18C109.247 21.18 109.794 21.0333 110.3 20.74C110.807 20.4467 111.214 20.02 111.52 19.46C111.84 18.8867 112 18.22 112 17.46Z" fill="white"/>
<path d="M119.575 13.56C119.908 13 120.348 12.5667 120.895 12.26C121.455 11.94 122.115 11.78 122.875 11.78V14.14H122.295C121.402 14.14 120.722 14.3667 120.255 14.82C119.802 15.2733 119.575 16.06 119.575 17.18V22.98H117.295V11.96H119.575V13.56Z" fill="white"/>
<path d="M124.211 17.42C124.211 16.3133 124.438 15.3333 124.891 14.48C125.358 13.6267 125.984 12.9667 126.771 12.5C127.571 12.02 128.458 11.78 129.431 11.78C130.151 11.78 130.858 11.94 131.551 12.26C132.258 12.5667 132.818 12.98 133.231 13.5V8.18H135.531V22.98H133.231V21.32C132.858 21.8533 132.338 22.2933 131.671 22.64C131.018 22.9867 130.264 23.16 129.411 23.16C128.451 23.16 127.571 22.92 126.771 22.44C125.984 21.9467 125.358 21.2667 124.891 20.4C124.438 19.52 124.211 18.5267 124.211 17.42ZM133.231 17.46C133.231 16.7 133.071 16.04 132.751 15.48C132.444 14.92 132.038 14.4933 131.531 14.2C131.024 13.9067 130.478 13.76 129.891 13.76C129.304 13.76 128.758 13.9067 128.251 14.2C127.744 14.48 127.331 14.9 127.011 15.46C126.704 16.0067 126.551 16.66 126.551 17.42C126.551 18.18 126.704 18.8467 127.011 19.42C127.331 19.9933 127.744 20.4333 128.251 20.74C128.771 21.0333 129.318 21.18 129.891 21.18C130.478 21.18 131.024 21.0333 131.531 20.74C132.038 20.4467 132.444 20.02 132.751 19.46C133.071 18.8867 133.231 18.22 133.231 17.46Z" fill="white"/>
<path d="M148.626 17.2C148.626 17.6133 148.599 17.9867 148.546 18.32H140.126C140.192 19.2 140.519 19.9067 141.106 20.44C141.692 20.9733 142.412 21.24 143.266 21.24C144.492 21.24 145.359 20.7267 145.866 19.7H148.326C147.992 20.7133 147.386 21.5467 146.506 22.2C145.639 22.84 144.559 23.16 143.266 23.16C142.212 23.16 141.266 22.9267 140.426 22.46C139.599 21.98 138.946 21.3133 138.466 20.46C137.999 19.5933 137.766 18.5933 137.766 17.46C137.766 16.3267 137.992 15.3333 138.446 14.48C138.912 13.6133 139.559 12.9467 140.386 12.48C141.226 12.0133 142.186 11.78 143.266 11.78C144.306 11.78 145.232 12.0067 146.046 12.46C146.859 12.9133 147.492 13.5533 147.946 14.38C148.399 15.1933 148.626 16.1333 148.626 17.2ZM146.246 16.48C146.232 15.64 145.932 14.9667 145.346 14.46C144.759 13.9533 144.032 13.7 143.166 13.7C142.379 13.7 141.706 13.9533 141.146 14.46C140.586 14.9533 140.252 15.6267 140.146 16.48H146.246Z" fill="white"/>
<path d="M153.149 13.56C153.483 13 153.923 12.5667 154.469 12.26C155.029 11.94 155.689 11.78 156.449 11.78V14.14H155.869C154.976 14.14 154.296 14.3667 153.829 14.82C153.376 15.2733 153.149 16.06 153.149 17.18V22.98H150.869V11.96H153.149V13.56Z" fill="white"/>
<path d="M159.465 23.12C159.052 23.12 158.705 22.98 158.425 22.7C158.145 22.42 158.005 22.0733 158.005 21.66C158.005 21.2467 158.145 20.9 158.425 20.62C158.705 20.34 159.052 20.2 159.465 20.2C159.865 20.2 160.205 20.34 160.485 20.62C160.765 20.9 160.905 21.2467 160.905 21.66C160.905 22.0733 160.765 22.42 160.485 22.7C160.205 22.98 159.865 23.12 159.465 23.12Z" fill="white"/>
<path d="M162.609 17.42C162.609 16.3133 162.836 15.3333 163.289 14.48C163.756 13.6267 164.383 12.9667 165.169 12.5C165.969 12.02 166.856 11.78 167.829 11.78C168.549 11.78 169.256 11.94 169.949 12.26C170.656 12.5667 171.216 12.98 171.629 13.5V8.18H173.929V22.98H171.629V21.32C171.256 21.8533 170.736 22.2933 170.069 22.64C169.416 22.9867 168.663 23.16 167.809 23.16C166.849 23.16 165.969 22.92 165.169 22.44C164.383 21.9467 163.756 21.2667 163.289 20.4C162.836 19.52 162.609 18.5267 162.609 17.42ZM171.629 17.46C171.629 16.7 171.469 16.04 171.149 15.48C170.843 14.92 170.436 14.4933 169.929 14.2C169.423 13.9067 168.876 13.76 168.289 13.76C167.703 13.76 167.156 13.9067 166.649 14.2C166.143 14.48 165.729 14.9 165.409 15.46C165.103 16.0067 164.949 16.66 164.949 17.42C164.949 18.18 165.103 18.8467 165.409 19.42C165.729 19.9933 166.143 20.4333 166.649 20.74C167.169 21.0333 167.716 21.18 168.289 21.18C168.876 21.18 169.423 21.0333 169.929 20.74C170.436 20.4467 170.843 20.02 171.149 19.46C171.469 18.8867 171.629 18.22 171.629 17.46Z" fill="url(#paint2_linear_70_4948)"/>
<path d="M187.024 17.2C187.024 17.6133 186.997 17.9867 186.944 18.32H178.524C178.591 19.2 178.917 19.9067 179.504 20.44C180.091 20.9733 180.811 21.24 181.664 21.24C182.891 21.24 183.757 20.7267 184.264 19.7H186.724C186.391 20.7133 185.784 21.5467 184.904 22.2C184.037 22.84 182.957 23.16 181.664 23.16C180.611 23.16 179.664 22.9267 178.824 22.46C177.997 21.98 177.344 21.3133 176.864 20.46C176.397 19.5933 176.164 18.5933 176.164 17.46C176.164 16.3267 176.391 15.3333 176.844 14.48C177.311 13.6133 177.957 12.9467 178.784 12.48C179.624 12.0133 180.584 11.78 181.664 11.78C182.704 11.78 183.631 12.0067 184.444 12.46C185.257 12.9133 185.891 13.5533 186.344 14.38C186.797 15.1933 187.024 16.1333 187.024 17.2ZM184.644 16.48C184.631 15.64 184.331 14.9667 183.744 14.46C183.157 13.9533 182.431 13.7 181.564 13.7C180.777 13.7 180.104 13.9533 179.544 14.46C178.984 14.9533 178.651 15.6267 178.544 16.48H184.644Z" fill="url(#paint3_linear_70_4948)"/>
<path d="M193.268 23.16C192.401 23.16 191.621 23.0067 190.928 22.7C190.248 22.38 189.708 21.9533 189.308 21.42C188.908 20.8733 188.694 20.2667 188.668 19.6H191.028C191.068 20.0667 191.288 20.46 191.688 20.78C192.101 21.0867 192.614 21.24 193.228 21.24C193.868 21.24 194.361 21.12 194.708 20.88C195.068 20.6267 195.248 20.3067 195.248 19.92C195.248 19.5067 195.048 19.2 194.648 19C194.261 18.8 193.641 18.58 192.788 18.34C191.961 18.1133 191.288 17.8933 190.768 17.68C190.248 17.4667 189.794 17.14 189.408 16.7C189.034 16.26 188.848 15.68 188.848 14.96C188.848 14.3733 189.021 13.84 189.368 13.36C189.714 12.8667 190.208 12.48 190.848 12.2C191.501 11.92 192.248 11.78 193.088 11.78C194.341 11.78 195.348 12.1 196.108 12.74C196.881 13.3667 197.294 14.2267 197.348 15.32H195.068C195.028 14.8267 194.828 14.4333 194.468 14.14C194.108 13.8467 193.621 13.7 193.008 13.7C192.408 13.7 191.948 13.8133 191.628 14.04C191.308 14.2667 191.148 14.5667 191.148 14.94C191.148 15.2333 191.254 15.48 191.468 15.68C191.681 15.88 191.941 16.04 192.248 16.16C192.554 16.2667 193.008 16.4067 193.608 16.58C194.408 16.7933 195.061 17.0133 195.568 17.24C196.088 17.4533 196.534 17.7733 196.908 18.2C197.281 18.6267 197.474 19.1933 197.488 19.9C197.488 20.5267 197.314 21.0867 196.968 21.58C196.621 22.0733 196.128 22.46 195.488 22.74C194.861 23.02 194.121 23.16 193.268 23.16Z" fill="url(#paint4_linear_70_4948)"/>
<path d="M201.111 10.5C200.698 10.5 200.351 10.36 200.071 10.08C199.791 9.8 199.651 9.45333 199.651 9.04C199.651 8.62667 199.791 8.28 200.071 8C200.351 7.72 200.698 7.58 201.111 7.58C201.511 7.58 201.851 7.72 202.131 8C202.411 8.28 202.551 8.62667 202.551 9.04C202.551 9.45333 202.411 9.8 202.131 10.08C201.851 10.36 201.511 10.5 201.111 10.5ZM202.231 11.96V22.98H199.951V11.96H202.231Z" fill="url(#paint5_linear_70_4948)"/>
<path d="M209.665 11.78C210.518 11.78 211.272 11.9533 211.925 12.3C212.592 12.6333 213.112 13.0533 213.485 13.56V11.96H215.785V23.16C215.785 24.1733 215.572 25.0733 215.145 25.86C214.718 26.66 214.098 27.2867 213.285 27.74C212.485 28.1933 211.525 28.42 210.405 28.42C208.912 28.42 207.672 28.0667 206.685 27.36C205.698 26.6667 205.138 25.72 205.005 24.52H207.265C207.438 25.0933 207.805 25.5533 208.365 25.9C208.938 26.26 209.618 26.44 210.405 26.44C211.325 26.44 212.065 26.16 212.625 25.6C213.198 25.04 213.485 24.2267 213.485 23.16V21.32C213.098 21.84 212.572 22.28 211.905 22.64C211.252 22.9867 210.505 23.16 209.665 23.16C208.705 23.16 207.825 22.92 207.025 22.44C206.238 21.9467 205.612 21.2667 205.145 20.4C204.692 19.52 204.465 18.5267 204.465 17.42C204.465 16.3133 204.692 15.3333 205.145 14.48C205.612 13.6267 206.238 12.9667 207.025 12.5C207.825 12.02 208.705 11.78 209.665 11.78ZM213.485 17.46C213.485 16.7 213.325 16.04 213.005 15.48C212.698 14.92 212.292 14.4933 211.785 14.2C211.278 13.9067 210.732 13.76 210.145 13.76C209.558 13.76 209.012 13.9067 208.505 14.2C207.998 14.48 207.585 14.9 207.265 15.46C206.958 16.0067 206.805 16.66 206.805 17.42C206.805 18.18 206.958 18.8467 207.265 19.42C207.585 19.9933 207.998 20.4333 208.505 20.74C209.025 21.0333 209.572 21.18 210.145 21.18C210.732 21.18 211.278 21.0333 211.785 20.74C212.292 20.4467 212.698 20.02 213.005 19.46C213.325 18.8867 213.485 18.22 213.485 17.46Z" fill="url(#paint6_linear_70_4948)"/>
<path d="M224.34 11.78C225.206 11.78 225.98 11.96 226.66 12.32C227.353 12.68 227.893 13.2133 228.28 13.92C228.666 14.6267 228.86 15.48 228.86 16.48V22.98H226.6V16.82C226.6 15.8333 226.353 15.08 225.86 14.56C225.366 14.0267 224.693 13.76 223.84 13.76C222.986 13.76 222.306 14.0267 221.8 14.56C221.306 15.08 221.06 15.8333 221.06 16.82V22.98H218.78V11.96H221.06V13.22C221.433 12.7667 221.906 12.4133 222.48 12.16C223.066 11.9067 223.686 11.78 224.34 11.78Z" fill="url(#paint7_linear_70_4948)"/>
<defs>
<linearGradient id="paint0_linear_70_4948" x1="0" y1="18" x2="36" y2="18" gradientUnits="userSpaceOnUse">
<stop stop-color="#00E5FF"/>
<stop offset="0.5" stop-color="#7C3AED"/>
<stop offset="1" stop-color="#F72585"/>
</linearGradient>
<linearGradient id="paint1_linear_70_4948" x1="8.83125" y1="18.4177" x2="26.3333" y2="18.4177" gradientUnits="userSpaceOnUse">
<stop stop-color="#EA499B"/>
<stop offset="1" stop-color="#8C5CF5"/>
</linearGradient>
<linearGradient id="paint2_linear_70_4948" x1="48" y1="18" x2="228.86" y2="18" gradientUnits="userSpaceOnUse">
<stop stop-color="#FB923C"/>
<stop offset="1" stop-color="#EC4899"/>
</linearGradient>
<linearGradient id="paint3_linear_70_4948" x1="48" y1="18" x2="228.86" y2="18" gradientUnits="userSpaceOnUse">
<stop stop-color="#FB923C"/>
<stop offset="1" stop-color="#EC4899"/>
</linearGradient>
<linearGradient id="paint4_linear_70_4948" x1="48" y1="18" x2="228.86" y2="18" gradientUnits="userSpaceOnUse">
<stop stop-color="#FB923C"/>
<stop offset="1" stop-color="#EC4899"/>
</linearGradient>
<linearGradient id="paint5_linear_70_4948" x1="48" y1="18" x2="228.86" y2="18" gradientUnits="userSpaceOnUse">
<stop stop-color="#FB923C"/>
<stop offset="1" stop-color="#EC4899"/>
</linearGradient>
<linearGradient id="paint6_linear_70_4948" x1="48" y1="18" x2="228.86" y2="18" gradientUnits="userSpaceOnUse">
<stop stop-color="#FB923C"/>
<stop offset="1" stop-color="#EC4899"/>
</linearGradient>
<linearGradient id="paint7_linear_70_4948" x1="48" y1="18" x2="228.86" y2="18" gradientUnits="userSpaceOnUse">
<stop stop-color="#FB923C"/>
<stop offset="1" stop-color="#EC4899"/>
</linearGradient>
</defs>
</svg>
