<svg width="229" height="36" viewBox="0 0 229 36" fill="none" xmlns="http://www.w3.org/2000/svg">
<path d="M0 12C0 5.37258 5.37258 0 12 0H24C30.6274 0 36 5.37258 36 12V24C36 30.6274 30.6274 36 24 36H12C5.37258 36 0 30.6274 0 24V12Z" fill="url(#paint0_linear_88_2856)"/>
<path d="M2 10C2 5.58172 5.58172 2 10 2H26C30.4183 2 34 5.58172 34 10V26C34 30.4183 30.4183 34 26 34H10C5.58172 34 2 30.4183 2 26V10Z" fill="#0B0B14"/>
<path d="M25.667 21.417C26.1995 21.4171 26.6373 21.5983 27.0205 21.9814C27.4034 22.3645 27.5836 22.8012 27.583 23.332V27C27.583 28.2426 26.5756 29.25 25.333 29.25H10C8.75736 29.25 7.75 28.2426 7.75 27V23.333C7.75007 22.8006 7.93083 22.3635 8.31348 21.9814C8.64919 21.6463 9.02693 21.4661 9.47266 21.4258L9.66797 21.417H25.667ZM13.667 6.75H21.667C23.313 6.75007 24.6943 7.32219 25.8535 8.48145C27.0127 9.64067 27.5837 11.0212 27.583 12.666C27.5822 14.3115 27.0104 15.6941 25.8516 16.8545C24.6934 18.014 23.3125 18.5846 21.667 18.583H13.667C12.0209 18.583 10.6398 18.0116 9.48145 16.8525C8.32278 15.6931 7.75079 14.3115 7.75 12.666C7.74927 11.0214 8.32059 9.64067 9.48047 8.48145C10.6409 7.32179 12.0228 6.75 13.667 6.75ZM13.667 10.583C13.1001 10.583 12.5892 10.7836 12.1865 11.1875C11.7852 11.5902 11.5843 12.0997 11.583 12.665C11.5817 13.2329 11.783 13.7438 12.1865 14.1475C12.5896 14.5506 13.1 14.7509 13.667 14.749V14.75L13.668 14.749L13.6699 14.75L13.6689 14.749C14.235 14.7485 14.7447 14.5491 15.1475 14.1465C15.5508 13.7431 15.7513 13.2323 15.75 12.665C15.7487 12.0997 15.5487 11.5902 15.1475 11.1875C14.7448 10.7835 14.2339 10.5831 13.667 10.583ZM21.667 10.583C21.1001 10.583 20.5892 10.7836 20.1865 11.1875C19.7852 11.5902 19.5843 12.0997 19.583 12.665C19.5817 13.2329 19.783 13.7438 20.1865 14.1475C20.5896 14.5506 21.1 14.7509 21.667 14.749V14.75L21.668 14.749L21.6699 14.75L21.6689 14.749C22.235 14.7485 22.7447 14.5491 23.1475 14.1465C23.5508 13.7431 23.7513 13.2323 23.75 12.665C23.7487 12.0997 23.5487 11.5902 23.1475 11.1875C22.7448 10.7835 22.2339 10.5831 21.667 10.583Z" stroke="url(#paint1_linear_88_2856)" stroke-width="1.5"/>
<path d="M55.1 24.12C53.8067 24.12 52.6133 23.82 51.52 23.22C50.44 22.6067 49.58 21.76 48.94 20.68C48.3133 19.5867 48 18.36 48 17C48 15.64 48.3133 14.42 48.94 13.34C49.58 12.26 50.44 11.42 51.52 10.82C52.6133 10.2067 53.8067 9.90002 55.1 9.90002C56.4067 9.90002 57.6 10.2067 58.68 10.82C59.7733 11.42 60.6333 12.26 61.26 13.34C61.8867 14.42 62.2 15.64 62.2 17C62.2 18.36 61.8867 19.5867 61.26 20.68C60.6333 21.76 59.7733 22.6067 58.68 23.22C57.6 23.82 56.4067 24.12 55.1 24.12ZM55.1 22.14C56.02 22.14 56.84 21.9334 57.56 21.52C58.28 21.0934 58.84 20.4934 59.24 19.72C59.6533 18.9334 59.86 18.0267 59.86 17C59.86 15.9734 59.6533 15.0734 59.24 14.3C58.84 13.5267 58.28 12.9334 57.56 12.52C56.84 12.1067 56.02 11.9 55.1 11.9C54.18 11.9 53.36 12.1067 52.64 12.52C51.92 12.9334 51.3533 13.5267 50.94 14.3C50.54 15.0734 50.34 15.9734 50.34 17C50.34 18.0267 50.54 18.9334 50.94 19.72C51.3533 20.4934 51.92 21.0934 52.64 21.52C53.36 21.9334 54.18 22.14 55.1 22.14Z" fill="white"/>
<path d="M70.0036 12.78C70.8703 12.78 71.6436 12.96 72.3236 13.32C73.0169 13.68 73.5569 14.2134 73.9436 14.92C74.3303 15.6267 74.5236 16.48 74.5236 17.48V23.98H72.2636V17.82C72.2636 16.8334 72.0169 16.08 71.5236 15.56C71.0303 15.0267 70.3569 14.76 69.5036 14.76C68.6503 14.76 67.9703 15.0267 67.4636 15.56C66.9703 16.08 66.7236 16.8334 66.7236 17.82V23.98H64.4436V12.96H66.7236V14.22C67.0969 13.7667 67.5703 13.4134 68.1436 13.16C68.7303 12.9067 69.3503 12.78 70.0036 12.78Z" fill="white"/>
<path d="M79.7119 14.6C80.0985 14.0667 80.6252 13.6334 81.2919 13.3C81.9719 12.9534 82.7252 12.78 83.5519 12.78C84.5252 12.78 85.4052 13.0134 86.1919 13.48C86.9785 13.9467 87.5985 14.6134 88.0519 15.48C88.5052 16.3334 88.7319 17.3134 88.7319 18.42C88.7319 19.5267 88.5052 20.52 88.0519 21.4C87.5985 22.2667 86.9719 22.9467 86.1719 23.44C85.3852 23.92 84.5119 24.16 83.5519 24.16C82.6985 24.16 81.9385 23.9934 81.2719 23.66C80.6185 23.3267 80.0985 22.9 79.7119 22.38V23.98H77.4319V9.18002H79.7119V14.6ZM86.4119 18.42C86.4119 17.66 86.2519 17.0067 85.9319 16.46C85.6252 15.9 85.2119 15.48 84.6919 15.2C84.1852 14.9067 83.6385 14.76 83.0519 14.76C82.4785 14.76 81.9319 14.9067 81.4119 15.2C80.9052 15.4934 80.4919 15.92 80.1719 16.48C79.8652 17.04 79.7119 17.7 79.7119 18.46C79.7119 19.22 79.8652 19.8867 80.1719 20.46C80.4919 21.02 80.9052 21.4467 81.4119 21.74C81.9319 22.0334 82.4785 22.18 83.0519 22.18C83.6385 22.18 84.1852 22.0334 84.6919 21.74C85.2119 21.4334 85.6252 20.9934 85.9319 20.42C86.2519 19.8467 86.4119 19.18 86.4119 18.42Z" fill="white"/>
<path d="M95.7666 24.16C94.7266 24.16 93.7866 23.9267 92.9466 23.46C92.1066 22.98 91.4466 22.3134 90.9666 21.46C90.4866 20.5934 90.2466 19.5934 90.2466 18.46C90.2466 17.34 90.4932 16.3467 90.9866 15.48C91.4799 14.6134 92.1532 13.9467 93.0066 13.48C93.8599 13.0134 94.8132 12.78 95.8666 12.78C96.9199 12.78 97.8732 13.0134 98.7266 13.48C99.5799 13.9467 100.253 14.6134 100.747 15.48C101.24 16.3467 101.487 17.34 101.487 18.46C101.487 19.58 101.233 20.5734 100.727 21.44C100.22 22.3067 99.5266 22.98 98.6466 23.46C97.7799 23.9267 96.8199 24.16 95.7666 24.16ZM95.7666 22.18C96.3532 22.18 96.8999 22.04 97.4066 21.76C97.9266 21.48 98.3466 21.06 98.6666 20.5C98.9866 19.94 99.1466 19.26 99.1466 18.46C99.1466 17.66 98.9932 16.9867 98.6866 16.44C98.3799 15.88 97.9732 15.46 97.4666 15.18C96.9599 14.9 96.4132 14.76 95.8266 14.76C95.2399 14.76 94.6932 14.9 94.1866 15.18C93.6932 15.46 93.2999 15.88 93.0066 16.44C92.7132 16.9867 92.5666 17.66 92.5666 18.46C92.5666 19.6467 92.8666 20.5667 93.4666 21.22C94.0799 21.86 94.8466 22.18 95.7666 22.18Z" fill="white"/>
<path d="M102.98 18.42C102.98 17.3134 103.207 16.3334 103.66 15.48C104.127 14.6267 104.754 13.9667 105.54 13.5C106.34 13.02 107.22 12.78 108.18 12.78C109.047 12.78 109.8 12.9534 110.44 13.3C111.094 13.6334 111.614 14.0534 112 14.56V12.96H114.3V23.98H112V22.34C111.614 22.86 111.087 23.2934 110.42 23.64C109.754 23.9867 108.994 24.16 108.14 24.16C107.194 24.16 106.327 23.92 105.54 23.44C104.754 22.9467 104.127 22.2667 103.66 21.4C103.207 20.52 102.98 19.5267 102.98 18.42ZM112 18.46C112 17.7 111.84 17.04 111.52 16.48C111.214 15.92 110.807 15.4934 110.3 15.2C109.794 14.9067 109.247 14.76 108.66 14.76C108.074 14.76 107.527 14.9067 107.02 15.2C106.514 15.48 106.1 15.9 105.78 16.46C105.474 17.0067 105.32 17.66 105.32 18.42C105.32 19.18 105.474 19.8467 105.78 20.42C106.1 20.9934 106.514 21.4334 107.02 21.74C107.54 22.0334 108.087 22.18 108.66 22.18C109.247 22.18 109.794 22.0334 110.3 21.74C110.807 21.4467 111.214 21.02 111.52 20.46C111.84 19.8867 112 19.22 112 18.46Z" fill="white"/>
<path d="M119.575 14.56C119.908 14 120.348 13.5667 120.895 13.26C121.455 12.94 122.115 12.78 122.875 12.78V15.14H122.295C121.402 15.14 120.722 15.3667 120.255 15.82C119.802 16.2734 119.575 17.06 119.575 18.18V23.98H117.295V12.96H119.575V14.56Z" fill="white"/>
<path d="M124.211 18.42C124.211 17.3134 124.438 16.3334 124.891 15.48C125.358 14.6267 125.984 13.9667 126.771 13.5C127.571 13.02 128.458 12.78 129.431 12.78C130.151 12.78 130.858 12.94 131.551 13.26C132.258 13.5667 132.818 13.98 133.231 14.5V9.18002H135.531V23.98H133.231V22.32C132.858 22.8534 132.338 23.2934 131.671 23.64C131.018 23.9867 130.264 24.16 129.411 24.16C128.451 24.16 127.571 23.92 126.771 23.44C125.984 22.9467 125.358 22.2667 124.891 21.4C124.438 20.52 124.211 19.5267 124.211 18.42ZM133.231 18.46C133.231 17.7 133.071 17.04 132.751 16.48C132.444 15.92 132.038 15.4934 131.531 15.2C131.024 14.9067 130.478 14.76 129.891 14.76C129.304 14.76 128.758 14.9067 128.251 15.2C127.744 15.48 127.331 15.9 127.011 16.46C126.704 17.0067 126.551 17.66 126.551 18.42C126.551 19.18 126.704 19.8467 127.011 20.42C127.331 20.9934 127.744 21.4334 128.251 21.74C128.771 22.0334 129.318 22.18 129.891 22.18C130.478 22.18 131.024 22.0334 131.531 21.74C132.038 21.4467 132.444 21.02 132.751 20.46C133.071 19.8867 133.231 19.22 133.231 18.46Z" fill="white"/>
<path d="M148.626 18.2C148.626 18.6134 148.599 18.9867 148.546 19.32H140.126C140.192 20.2 140.519 20.9067 141.106 21.44C141.692 21.9734 142.412 22.24 143.266 22.24C144.492 22.24 145.359 21.7267 145.866 20.7H148.326C147.992 21.7134 147.386 22.5467 146.506 23.2C145.639 23.84 144.559 24.16 143.266 24.16C142.212 24.16 141.266 23.9267 140.426 23.46C139.599 22.98 138.946 22.3134 138.466 21.46C137.999 20.5934 137.766 19.5934 137.766 18.46C137.766 17.3267 137.992 16.3334 138.446 15.48C138.912 14.6134 139.559 13.9467 140.386 13.48C141.226 13.0134 142.186 12.78 143.266 12.78C144.306 12.78 145.232 13.0067 146.046 13.46C146.859 13.9134 147.492 14.5534 147.946 15.38C148.399 16.1934 148.626 17.1334 148.626 18.2ZM146.246 17.48C146.232 16.64 145.932 15.9667 145.346 15.46C144.759 14.9534 144.032 14.7 143.166 14.7C142.379 14.7 141.706 14.9534 141.146 15.46C140.586 15.9534 140.252 16.6267 140.146 17.48H146.246Z" fill="white"/>
<path d="M153.149 14.56C153.483 14 153.923 13.5667 154.469 13.26C155.029 12.94 155.689 12.78 156.449 12.78V15.14H155.869C154.976 15.14 154.296 15.3667 153.829 15.82C153.376 16.2734 153.149 17.06 153.149 18.18V23.98H150.869V12.96H153.149V14.56Z" fill="white"/>
<path d="M159.465 24.12C159.052 24.12 158.705 23.98 158.425 23.7C158.145 23.42 158.005 23.0734 158.005 22.66C158.005 22.2467 158.145 21.9 158.425 21.62C158.705 21.34 159.052 21.2 159.465 21.2C159.865 21.2 160.205 21.34 160.485 21.62C160.765 21.9 160.905 22.2467 160.905 22.66C160.905 23.0734 160.765 23.42 160.485 23.7C160.205 23.98 159.865 24.12 159.465 24.12Z" fill="white"/>
<path d="M162.609 18.42C162.609 17.3134 162.836 16.3334 163.289 15.48C163.756 14.6267 164.383 13.9667 165.169 13.5C165.969 13.02 166.856 12.78 167.829 12.78C168.549 12.78 169.256 12.94 169.949 13.26C170.656 13.5667 171.216 13.98 171.629 14.5V9.18002H173.929V23.98H171.629V22.32C171.256 22.8534 170.736 23.2934 170.069 23.64C169.416 23.9867 168.663 24.16 167.809 24.16C166.849 24.16 165.969 23.92 165.169 23.44C164.383 22.9467 163.756 22.2667 163.289 21.4C162.836 20.52 162.609 19.5267 162.609 18.42ZM171.629 18.46C171.629 17.7 171.469 17.04 171.149 16.48C170.843 15.92 170.436 15.4934 169.929 15.2C169.423 14.9067 168.876 14.76 168.289 14.76C167.703 14.76 167.156 14.9067 166.649 15.2C166.143 15.48 165.729 15.9 165.409 16.46C165.103 17.0067 164.949 17.66 164.949 18.42C164.949 19.18 165.103 19.8467 165.409 20.42C165.729 20.9934 166.143 21.4334 166.649 21.74C167.169 22.0334 167.716 22.18 168.289 22.18C168.876 22.18 169.423 22.0334 169.929 21.74C170.436 21.4467 170.843 21.02 171.149 20.46C171.469 19.8867 171.629 19.22 171.629 18.46Z" fill="url(#paint2_linear_88_2856)"/>
<path d="M187.024 18.2C187.024 18.6134 186.997 18.9867 186.944 19.32H178.524C178.591 20.2 178.917 20.9067 179.504 21.44C180.091 21.9734 180.811 22.24 181.664 22.24C182.891 22.24 183.757 21.7267 184.264 20.7H186.724C186.391 21.7134 185.784 22.5467 184.904 23.2C184.037 23.84 182.957 24.16 181.664 24.16C180.611 24.16 179.664 23.9267 178.824 23.46C177.997 22.98 177.344 22.3134 176.864 21.46C176.397 20.5934 176.164 19.5934 176.164 18.46C176.164 17.3267 176.391 16.3334 176.844 15.48C177.311 14.6134 177.957 13.9467 178.784 13.48C179.624 13.0134 180.584 12.78 181.664 12.78C182.704 12.78 183.631 13.0067 184.444 13.46C185.257 13.9134 185.891 14.5534 186.344 15.38C186.797 16.1934 187.024 17.1334 187.024 18.2ZM184.644 17.48C184.631 16.64 184.331 15.9667 183.744 15.46C183.157 14.9534 182.431 14.7 181.564 14.7C180.777 14.7 180.104 14.9534 179.544 15.46C178.984 15.9534 178.651 16.6267 178.544 17.48H184.644Z" fill="url(#paint3_linear_88_2856)"/>
<path d="M193.268 24.16C192.401 24.16 191.621 24.0067 190.928 23.7C190.248 23.38 189.708 22.9534 189.308 22.42C188.908 21.8734 188.694 21.2667 188.668 20.6H191.028C191.068 21.0667 191.288 21.46 191.688 21.78C192.101 22.0867 192.614 22.24 193.228 22.24C193.868 22.24 194.361 22.12 194.708 21.88C195.068 21.6267 195.248 21.3067 195.248 20.92C195.248 20.5067 195.048 20.2 194.648 20C194.261 19.8 193.641 19.58 192.788 19.34C191.961 19.1134 191.288 18.8934 190.768 18.68C190.248 18.4667 189.794 18.14 189.408 17.7C189.034 17.26 188.848 16.68 188.848 15.96C188.848 15.3734 189.021 14.84 189.368 14.36C189.714 13.8667 190.208 13.48 190.848 13.2C191.501 12.92 192.248 12.78 193.088 12.78C194.341 12.78 195.348 13.1 196.108 13.74C196.881 14.3667 197.294 15.2267 197.348 16.32H195.068C195.028 15.8267 194.828 15.4334 194.468 15.14C194.108 14.8467 193.621 14.7 193.008 14.7C192.408 14.7 191.948 14.8134 191.628 15.04C191.308 15.2667 191.148 15.5667 191.148 15.94C191.148 16.2334 191.254 16.48 191.468 16.68C191.681 16.88 191.941 17.04 192.248 17.16C192.554 17.2667 193.008 17.4067 193.608 17.58C194.408 17.7934 195.061 18.0134 195.568 18.24C196.088 18.4534 196.534 18.7734 196.908 19.2C197.281 19.6267 197.474 20.1934 197.488 20.9C197.488 21.5267 197.314 22.0867 196.968 22.58C196.621 23.0734 196.128 23.46 195.488 23.74C194.861 24.02 194.121 24.16 193.268 24.16Z" fill="url(#paint4_linear_88_2856)"/>
<path d="M201.111 11.5C200.698 11.5 200.351 11.36 200.071 11.08C199.791 10.8 199.651 10.4534 199.651 10.04C199.651 9.62668 199.791 9.28002 200.071 9.00002C200.351 8.72002 200.698 8.58002 201.111 8.58002C201.511 8.58002 201.851 8.72002 202.131 9.00002C202.411 9.28002 202.551 9.62668 202.551 10.04C202.551 10.4534 202.411 10.8 202.131 11.08C201.851 11.36 201.511 11.5 201.111 11.5ZM202.231 12.96V23.98H199.951V12.96H202.231Z" fill="url(#paint5_linear_88_2856)"/>
<path d="M209.665 12.78C210.518 12.78 211.272 12.9534 211.925 13.3C212.592 13.6334 213.112 14.0534 213.485 14.56V12.96H215.785V24.16C215.785 25.1734 215.572 26.0734 215.145 26.86C214.718 27.66 214.098 28.2867 213.285 28.74C212.485 29.1934 211.525 29.42 210.405 29.42C208.912 29.42 207.672 29.0667 206.685 28.36C205.698 27.6667 205.138 26.72 205.005 25.52H207.265C207.438 26.0934 207.805 26.5534 208.365 26.9C208.938 27.26 209.618 27.44 210.405 27.44C211.325 27.44 212.065 27.16 212.625 26.6C213.198 26.04 213.485 25.2267 213.485 24.16V22.32C213.098 22.84 212.572 23.28 211.905 23.64C211.252 23.9867 210.505 24.16 209.665 24.16C208.705 24.16 207.825 23.92 207.025 23.44C206.238 22.9467 205.612 22.2667 205.145 21.4C204.692 20.52 204.465 19.5267 204.465 18.42C204.465 17.3134 204.692 16.3334 205.145 15.48C205.612 14.6267 206.238 13.9667 207.025 13.5C207.825 13.02 208.705 12.78 209.665 12.78ZM213.485 18.46C213.485 17.7 213.325 17.04 213.005 16.48C212.698 15.92 212.292 15.4934 211.785 15.2C211.278 14.9067 210.732 14.76 210.145 14.76C209.558 14.76 209.012 14.9067 208.505 15.2C207.998 15.48 207.585 15.9 207.265 16.46C206.958 17.0067 206.805 17.66 206.805 18.42C206.805 19.18 206.958 19.8467 207.265 20.42C207.585 20.9934 207.998 21.4334 208.505 21.74C209.025 22.0334 209.572 22.18 210.145 22.18C210.732 22.18 211.278 22.0334 211.785 21.74C212.292 21.4467 212.698 21.02 213.005 20.46C213.325 19.8867 213.485 19.22 213.485 18.46Z" fill="url(#paint6_linear_88_2856)"/>
<path d="M224.34 12.78C225.206 12.78 225.98 12.96 226.66 13.32C227.353 13.68 227.893 14.2134 228.28 14.92C228.666 15.6267 228.86 16.48 228.86 17.48V23.98H226.6V17.82C226.6 16.8334 226.353 16.08 225.86 15.56C225.366 15.0267 224.693 14.76 223.84 14.76C222.986 14.76 222.306 15.0267 221.8 15.56C221.306 16.08 221.06 16.8334 221.06 17.82V23.98H218.78V12.96H221.06V14.22C221.433 13.7667 221.906 13.4134 222.48 13.16C223.066 12.9067 223.686 12.78 224.34 12.78Z" fill="url(#paint7_linear_88_2856)"/>
<defs>
<linearGradient id="paint0_linear_88_2856" x1="0" y1="18" x2="36" y2="18" gradientUnits="userSpaceOnUse">
<stop stop-color="#FB923C"/>
<stop offset="1" stop-color="#EC4899"/>
</linearGradient>
<linearGradient id="paint1_linear_88_2856" x1="7" y1="18" x2="28.3333" y2="18" gradientUnits="userSpaceOnUse">
<stop stop-color="#FB923C"/>
<stop offset="1" stop-color="#EC4899"/>
</linearGradient>
<linearGradient id="paint2_linear_88_2856" x1="48" y1="19" x2="228.86" y2="19" gradientUnits="userSpaceOnUse">
<stop stop-color="#FB923C"/>
<stop offset="1" stop-color="#EC4899"/>
</linearGradient>
<linearGradient id="paint3_linear_88_2856" x1="48" y1="19" x2="228.86" y2="19" gradientUnits="userSpaceOnUse">
<stop stop-color="#FB923C"/>
<stop offset="1" stop-color="#EC4899"/>
</linearGradient>
<linearGradient id="paint4_linear_88_2856" x1="48" y1="19" x2="228.86" y2="19" gradientUnits="userSpaceOnUse">
<stop stop-color="#FB923C"/>
<stop offset="1" stop-color="#EC4899"/>
</linearGradient>
<linearGradient id="paint5_linear_88_2856" x1="48" y1="19" x2="228.86" y2="19" gradientUnits="userSpaceOnUse">
<stop stop-color="#FB923C"/>
<stop offset="1" stop-color="#EC4899"/>
</linearGradient>
<linearGradient id="paint6_linear_88_2856" x1="48" y1="19" x2="228.86" y2="19" gradientUnits="userSpaceOnUse">
<stop stop-color="#FB923C"/>
<stop offset="1" stop-color="#EC4899"/>
</linearGradient>
<linearGradient id="paint7_linear_88_2856" x1="48" y1="19" x2="228.86" y2="19" gradientUnits="userSpaceOnUse">
<stop stop-color="#FB923C"/>
<stop offset="1" stop-color="#EC4899"/>
</linearGradient>
</defs>
</svg>
