<svg width="40" height="41" viewBox="0 0 40 41" fill="none" xmlns="http://www.w3.org/2000/svg">
<path d="M32 0.5C36.4183 0.5 40 4.08172 40 8.5V32.5C40 36.9183 36.4183 40.5 32 40.5H8C3.58172 40.5 6.44277e-08 36.9183 0 32.5V8.5C0 4.08172 3.58172 0.5 8 0.5H32Z" fill="#4F46E5" fill-opacity="0.2"/>
<path d="M32 0.5C36.4183 0.5 40 4.08172 40 8.5V32.5C40 36.9183 36.4183 40.5 32 40.5H8C3.58172 40.5 6.44277e-08 36.9183 0 32.5V8.5C0 4.08172 3.58172 0.5 8 0.5H32Z" stroke="#E5E7EB"/>
<path d="M29 35.5H11V7.5H29V35.5Z" stroke="#E5E7EB"/>
<g clip-path="url(#clip0_99_1023)">
<path d="M26.75 20.75C26.75 19.8636 26.5754 18.9858 26.2362 18.1669C25.897 17.3479 25.3998 16.6038 24.773 15.977C24.1462 15.3502 23.4021 14.853 22.5831 14.5138C21.7642 14.1746 20.8864 14 20 14C19.1136 14 18.2358 14.1746 17.4169 14.5138C16.5979 14.853 15.8538 15.3502 15.227 15.977C14.6002 16.6038 14.103 17.3479 13.7638 18.1669C13.4246 18.9858 13.25 19.8636 13.25 20.75C13.25 21.6364 13.4246 22.5142 13.7638 23.3331C14.103 24.1521 14.6002 24.8962 15.227 25.523C15.8538 26.1498 16.5979 26.647 17.4169 26.9862C18.2358 27.3254 19.1136 27.5 20 27.5C20.8864 27.5 21.7642 27.3254 22.5831 26.9862C23.4021 26.647 24.1462 26.1498 24.773 25.523C25.3998 24.8962 25.897 24.1521 26.2362 23.3331C26.5754 22.5142 26.75 21.6364 26.75 20.75ZM11 20.75C11 18.3631 11.9482 16.0739 13.636 14.386C15.3239 12.6982 17.6131 11.75 20 11.75C22.3869 11.75 24.6761 12.6982 26.364 14.386C28.0518 16.0739 29 18.3631 29 20.75C29 23.1369 28.0518 25.4261 26.364 27.114C24.6761 28.8018 22.3869 29.75 20 29.75C17.6131 29.75 15.3239 28.8018 13.636 27.114C11.9482 25.4261 11 23.1369 11 20.75ZM20 23.5625C20.7459 23.5625 21.4613 23.2662 21.9887 22.7387C22.5162 22.2113 22.8125 21.4959 22.8125 20.75C22.8125 20.0041 22.5162 19.2887 21.9887 18.7613C21.4613 18.2338 20.7459 17.9375 20 17.9375C19.2541 17.9375 18.5387 18.2338 18.0113 18.7613C17.4838 19.2887 17.1875 20.0041 17.1875 20.75C17.1875 21.4959 17.4838 22.2113 18.0113 22.7387C18.5387 23.2662 19.2541 23.5625 20 23.5625ZM20 15.6875C21.3427 15.6875 22.6303 16.2209 23.5797 17.1703C24.5291 18.1197 25.0625 19.4073 25.0625 20.75C25.0625 22.0927 24.5291 23.3803 23.5797 24.3297C22.6303 25.2791 21.3427 25.8125 20 25.8125C18.6573 25.8125 17.3697 25.2791 16.4203 24.3297C15.4709 23.3803 14.9375 22.0927 14.9375 20.75C14.9375 19.4073 15.4709 18.1197 16.4203 17.1703C17.3697 16.2209 18.6573 15.6875 20 15.6875ZM18.875 20.75C18.875 20.4516 18.9935 20.1655 19.2045 19.9545C19.4155 19.7435 19.7016 19.625 20 19.625C20.2984 19.625 20.5845 19.7435 20.7955 19.9545C21.0065 20.1655 21.125 20.4516 21.125 20.75C21.125 21.0484 21.0065 21.3345 20.7955 21.5455C20.5845 21.7565 20.2984 21.875 20 21.875C19.7016 21.875 19.4155 21.7565 19.2045 21.5455C18.9935 21.3345 18.875 21.0484 18.875 20.75Z" fill="#4F46E5"/>
</g>
<defs>
<clipPath id="clip0_99_1023">
<path d="M11 11.75H29V29.75H11V11.75Z" fill="white"/>
</clipPath>
</defs>
</svg>
